<?xml version="1.0" encoding="UTF-8"?>
<svg id="katman_2" data-name="katman 2" xmlns="http://www.w3.org/2000/svg" viewBox="0 0 285.99 247.65">
  <defs>
    <style>
      .cls-1 {
        fill: #00f6ff;
      }
    </style>
  </defs>
  <g id="katman_1" data-name="katman 1">
    <g>
      <path class="cls-1" d="M216.1,87.29c-5.05-8.54-10.03-17.11-14.88-25.77-1.04-1.87-2.2-2.48-4.28-2.48-17.94,.08-35.88,.05-53.83,.05s-35.89,.03-53.83-.05c-2.15-.01-3.41,.54-4.52,2.52-4.87,8.74-9.91,17.39-15,26.01-.82,1.4-.78,2.39,.01,3.75,18.31,31.63,36.58,63.28,54.81,94.95,.81,1.4,1.71,1.91,3.3,1.9,7.57-.08,15.15-.03,22.73-.04,3.13-.01,6.87,.95,9.23-.42,2.44-1.41,3.62-5.08,5.22-7.85,16.99-29.37,33.95-58.77,50.97-88.12,.93-1.61,1.05-2.79,.07-4.45Zm-59.96,44.07c-4.38,7.58-8.77,15.17-13.15,22.75-11.91-20.67-24.09-41.76-36.38-63.02,3.75,0,7.51,.01,11.27,.01h26.92s34.62-.01,34.62-.01c-7.77,13.42-15.52,26.84-23.28,40.27Z"/>
      <polygon class="cls-1" points="182.75 29.49 69.18 29.49 16.73 118.64 0 88.83 35.09 29.49 52.39 .2 166.28 .2 182.75 29.49"/>
      <polyline class="cls-1" points="228.24 188.18 194.65 188.42 252.24 89.26 199.62 .21 233.8 0 268.74 59.43 285.99 88.75 228.24 188.18"/>
      <polygon class="cls-1" points="51.98 119.15 108.83 217.47 212.26 218.25 194.83 247.65 125.89 246.98 91.88 246.65 34.87 148.06 51.98 119.15"/>
    </g>
  </g>
</svg>